<?xml version="1.0" encoding="utf-8"?>
<!-- Generator: Adobe Illustrator 16.0.0, SVG Export Plug-In . SVG Version: 6.00 Build 0)  -->
<!DOCTYPE svg PUBLIC "-//W3C//DTD SVG 1.1//EN" "http://www.w3.org/Graphics/SVG/1.1/DTD/svg11.dtd">
<svg version="1.1" id="layer_1" xmlns="http://www.w3.org/2000/svg" xmlns:xlink="http://www.w3.org/1999/xlink" x="0px" y="0px"
	 width="154px" height="38px" viewBox="0 -2 154 38" enable-background="new 0 -2 154 38" xml:space="preserve">
	 <g>
	    <line x1="0" y1="0" x2="154" y2="0"
        style="stroke:rgb(16,16,16);stroke-width:3"/>
        <rect x="0" y="2" fill="#ffffff" width="154" height="30" />
        <line x1="0" y1="34" x2="154" y2="34"
                style="stroke:rgb(16,16,16);stroke-width:3"/>
	 </g>
<g>
	<rect y="3" x="0" fill="#C1B0AE" width="24" height="8"/>
	<rect y="3" x="26" fill="#C1B0AE" width="24" height="8"/>
	<rect y="3" x="52" fill="#C1B0AE" width="24" height="8"/>
	<rect y="3" x="78" fill="#C1B0AE" width="24" height="8"/>
	<rect y="3" x="104" fill="#C1B0AE" width="24" height="8"/>
	<rect y="3" x="130" fill="#C1B0AE" width="24" height="8"/>
</g>
<g>
	<rect y="13" x="-12" fill="#C1B0AE" width="24" height="8"/>
	<rect y="13" x="14" fill="#C1B0AE" width="24" height="8"/>
	<rect y="13" x="40" fill="#C1B0AE" width="24" height="8"/>
	<rect y="13" x="66" fill="#C1B0AE" width="24" height="8"/>
	<rect y="13" x="92" fill="#C1B0AE" width="24" height="8"/>
	<rect y="13" x="118" fill="#C1B0AE" width="24" height="8"/>
	<rect y="13" x="144" fill="#C1B0AE" width="24" height="8"/>
</g>
<g>
	<rect y="23" x="0" fill="#C1B0AE" width="24" height="8"/>
	<rect y="23" x="26" fill="#C1B0AE" width="24" height="8"/>
	<rect y="23" x="52" fill="#C1B0AE" width="24" height="8"/>
	<rect y="23" x="78" fill="#C1B0AE" width="24" height="8"/>
	<rect y="23" x="104" fill="#C1B0AE" width="24" height="8"/>
	<rect y="23" x="130" fill="#C1B0AE" width="24" height="8"/>
</g>
</svg>
